<svg version="1" xmlns="http://www.w3.org/2000/svg" width="800" height="800" viewBox="0 0 600.000000 600.000000"><path d="M208 117v29.9l3.8.6c15.5 2.3 33.3 8.1 56 18.2.9.4 1.2-6.4 1.2-32v-32.5l-6.7-2.5C249 93.9 218.5 87 209.8 87c-1.7 0-1.8 2.1-1.8 30zM133 94.4c-15.8 5-25.7 9.3-39.7 17.4l-6.3 3.6V203.1l4.8-5.8c7.1-8.4 22.3-22.6 30.5-28.4 4-2.8 11.1-7.1 16-9.5l8.7-4.4v-32c0-29.8-.1-32-1.7-32-1 .1-6.5 1.6-12.3 3.4zM506.5 101.1c-11.7 13.9-31.4 29.5-46.7 37l-6.8 3.3v31.9c0 29.8.1 31.8 1.8 31.3.9-.3 4.6-1.2 8.2-2.1 3.6-.9 10.8-3.3 16-5.2 10.5-3.9 33-15.1 33.6-16.7.2-.6.3-20.4.2-43.9l-.3-42.8-6 7.2zM331 162.4v32.3l4.3 1.6c12.9 4.8 33.8 9.8 46.2 11.2 3.3.3 7 .8 8.3 1.1l2.2.4v-60h-2.7c-8.7 0-33.7-7.7-51-15.6l-7.3-3.3v32.3zM208.2 269.2l.3 30.3 5.9.7c12.1 1.5 31.9 8 53.4 17.5.9.4 1.2-6.3 1.2-31.9v-32.5l-9.2-3.1c-12.5-4.2-27-7.8-39.9-9.6-5.9-.9-10.9-1.6-11.3-1.6-.3 0-.5 13.6-.4 30.2zM136.2 245.6c-16 4.7-26.8 9.2-40.9 17.2l-8.3 4.7v88l2.6-3.5c1.5-1.9 7.7-8.5 13.8-14.6 11.5-11.3 24.3-20.7 36.8-27l6.8-3.4v-32c0-25-.3-32-1.2-31.9-.7 0-5 1.1-9.6 2.5zM506.2 253.5c-11.5 13.8-31.8 29.9-46.4 36.8l-6.8 3.2v31.7c0 17.5.3 31.8.8 31.8 1.7 0 19.6-5.2 25.9-7.6 7.9-2.9 27.7-12.6 31.1-15.2l2.2-1.7-.2-43.3-.3-43.3-6.3 7.6zM331.2 315.1l.3 32.3 11.8 3.8c11.7 3.7 31.7 8 43 9.2l5.7.6v-29.5c0-22.8-.3-29.6-1.2-29.9-.7-.2-5.5-1.1-10.6-2-11.1-2-23.4-5.9-36.2-11.6-5.2-2.3-10.3-4.4-11.3-4.7-1.6-.5-1.7 1.3-1.5 31.8zM208 421.5V452h2.8c8.6.1 33 7.3 48.7 14.5 4.3 1.9 8.1 3.5 8.6 3.5s.9-14.5.9-32.3v-32.4l-13.2-4.1c-13.7-4.3-28.1-7.6-37.8-8.7-3-.3-6.5-.8-7.7-1.1l-2.3-.4v30.5zM134.5 398.4c-6 1.8-13.5 4.3-16.5 5.5-7.6 3.1-28.8 14.1-30 15.6-.7.8-.9 16.1-.8 44.2l.3 43.1 6.8-7.9c12.6-14.7 31-29.1 45.9-36.2l6.8-3.2v-32.3c0-17.7-.3-32.2-.7-32.2-.5.1-5.7 1.6-11.8 3.4zM510.7 400.4c-3 4.5-15.6 17.3-23.7 24.1-8.6 7.1-18.7 13.8-27.7 18.4L453 446v63.2l3.8-.7c8.9-1.6 26.8-8.2 39.8-14.6 7.8-3.8 14.6-7.5 15.3-8.2.8-1.1 1.1-13.2.9-44.8-.3-42.3-.3-43.2-2.1-40.5zM331 467.2v32.5l10.3 3.1c17.8 5.4 40.8 10.2 49.1 10.2 1.4 0 1.6-3 1.6-29.4v-29.4l-2.7-.6c-1.6-.3-5.7-1-9.3-1.7-8.6-1.4-22.7-6-35.8-11.6-5.9-2.4-11.3-4.7-11.9-5-1-.4-1.3 6.4-1.3 31.9z"/></svg>